<mxfile host="app.diagrams.net" modified="2024-01-31T02:00:40.153Z" agent="Mozilla/5.0 (Windows NT 10.0; Win64; x64) AppleWebKit/537.36 (KHTML, like Gecko) Chrome/121.0.0.0 Safari/537.36 Edg/121.0.0.0" etag="FGEqL6Ow2MMvTdubn9oC" version="23.0.2" type="github">
  <diagram name="第 1 页" id="fON1oXFqaOh5pjJqJWwx">
    <mxGraphModel dx="1207" dy="851" grid="1" gridSize="10" guides="1" tooltips="1" connect="1" arrows="1" fold="1" page="1" pageScale="1" pageWidth="827" pageHeight="1169" math="0" shadow="0">
      <root>
        <mxCell id="0" />
        <mxCell id="1" parent="0" />
      </root>
    </mxGraphModel>
  </diagram>
</mxfile>
